<svg xmlns="http://www.w3.org/2000/svg" viewBox="0 0 477.86 477.85"><defs><style>.cls-1{fill:#fff;}</style></defs><title>arrow</title><g id="Calque_2" data-name="Calque 2"><g id="Capa_1" data-name="Capa 1"><path class="cls-1" d="M102.86,187.72H17.06A17.07,17.07,0,0,1,5.64,158L176.31,4.37a17.07,17.07,0,0,1,22.19-.53l187.73,153.6a17.07,17.07,0,0,1-10.77,30.28h-85c4.39,134.82,62,219,175.79,256.88a17.06,17.06,0,0,1,11.65,16.18,15.86,15.86,0,0,1-.22,2.75,17.07,17.07,0,0,1-16.84,14.32C259.82,477.85,112.17,356.86,102.86,187.72Z"/></g></g></svg>