<svg xmlns="http://www.w3.org/2000/svg" viewBox="0 0 300 300"><defs><style>.cls-1{fill:#303030;}.cls-2{fill:#fff;}</style></defs><title>babelio</title><g id="Calque_2" data-name="Calque 2"><g id="Calque_1-2" data-name="Calque 1"><circle class="cls-1" cx="150" cy="150" r="150"/><path class="cls-2" d="M52.82,178.84H29.36c-.4,0-.55-.06-.54-.51,0-2.37,0-4.75,0-7.12,0-.31.09-.4.4-.4a89.37,89.37,0,0,0,37.71-8.44,91.18,91.18,0,0,0,9.42-5.12l.25-.16c.16-.1.26-.11.25.13v.21q0,10.47,0,20.94c0,.39-.11.47-.49.47Z"/><path class="cls-2" d="M109.42,158.16c3.39.52,6,2.06,7.41,5.31a10,10,0,0,1,.64,4.87,10.22,10.22,0,0,1-3.63,7.33,12.87,12.87,0,0,1-5.41,2.58,21.26,21.26,0,0,1-5.09.58c-4.41,0-8.82,0-13.22,0-.14,0-.37.12-.37-.19s0-.37.24-.44c2-.5,2.75-2,3-3.92a41.16,41.16,0,0,0,.18-4.58q0-10.81,0-21.65a19.33,19.33,0,0,0-.31-3.72,3.4,3.4,0,0,0-2.59-2.84c-.13,0-.32,0-.39-.21s0-.46.34-.46c4.86,0,9.72,0,14.58,0a14.61,14.61,0,0,1,6.58,1.5,7.55,7.55,0,0,1,4.19,6.34,8.88,8.88,0,0,1-.7,4.85,8.58,8.58,0,0,1-4.91,4.4l-.39.15ZM98.94,167.5c0,2.09,0,4.18,0,6.27,0,.3.08.37.37.37,1.32,0,2.64,0,4,0a13.93,13.93,0,0,0,3.22-.34,5.9,5.9,0,0,0,4.4-3.36,7.83,7.83,0,0,0,.53-3.71,5.48,5.48,0,0,0-3-4.74,9.86,9.86,0,0,0-4.29-1.07c-1.58-.06-3.17,0-4.75,0-.37,0-.43.11-.43.45C99,163.37,98.94,165.43,98.94,167.5Zm0-16.5c0,1.7,0,3.4,0,5.09,0,.28.08.35.35.35h4a8.85,8.85,0,0,0,2.12-.25,5.15,5.15,0,0,0,4.11-3.61,7,7,0,0,0,.14-3.33,4,4,0,0,0-2.65-3.16,8.78,8.78,0,0,0-2.63-.52c-1.68-.09-3.37,0-5.05-.05-.32,0-.39.09-.39.4C99,147.61,98.94,149.3,98.94,151Z"/><path class="cls-2" d="M159.3,153.58a13.34,13.34,0,0,1,3.43-2.52,10.87,10.87,0,0,1,14.66,4.77,15.85,15.85,0,0,1,1.88,6.66,18.35,18.35,0,0,1-1.35,8.73,13.37,13.37,0,0,1-10,8,21.21,21.21,0,0,1-6.16.22,65.77,65.77,0,0,0-7.55-.55c-.39,0-.34-.21-.34-.45V155.7c0-4.38,0-8.76,0-13.14a6.85,6.85,0,0,0-.19-1.5,3.4,3.4,0,0,0-2.27-2.6.42.42,0,0,1-.34-.48c0-.29.21-.26.36-.3,2.26-.6,4.52-1.2,6.79-1.78.93-.24,1.08-.13,1.08.81v16.87Zm0,12.56c0,2.62,0,5.24,0,7.87,0,.31.09.43.39.5a20.53,20.53,0,0,0,5.62.71,7.85,7.85,0,0,0,7.15-4.37,13,13,0,0,0,1.32-5.68,13.83,13.83,0,0,0-1.21-6.68,6.77,6.77,0,0,0-7.69-3.9,11,11,0,0,0-5.45,3.16c-.16.16-.12.33-.12.51C159.29,160.89,159.29,163.51,159.29,166.14Z"/><path class="cls-2" d="M68.85,139.17v.36q0,8.53,0,17.06a.62.62,0,0,1-.4.64,85.88,85.88,0,0,1-23.8,8.2c-2.37.44-4.76.77-7.16,1-.13,0-.25,0-.38,0s-.3,0-.29-.27,0-.75,0-1.13c0-2.82,0-5.65,0-8.47,0-.29.06-.39.38-.44a53.53,53.53,0,0,0,16.95-5.65A54.18,54.18,0,0,0,68.6,139.32l.15-.2Z"/><path class="cls-2" d="M257.51,149.73a13.13,13.13,0,0,1,8.7,2.94,13.4,13.4,0,0,1,4.46,7.62,17.7,17.7,0,0,1-.94,11.33,12.53,12.53,0,0,1-10.85,7.83,14.06,14.06,0,0,1-7.89-1.38,12.08,12.08,0,0,1-6-6.74,17.91,17.91,0,0,1-.1-13A12.89,12.89,0,0,1,257.51,149.73Zm8.11,15.3a14.09,14.09,0,0,0-1.62-6.84,7.49,7.49,0,0,0-13.73,1,13.92,13.92,0,0,0-.82,7,12.32,12.32,0,0,0,1.73,5.22,7.33,7.33,0,0,0,6.83,3.67,7.07,7.07,0,0,0,6.3-4.15A12.27,12.27,0,0,0,265.62,165Z"/><path class="cls-2" d="M139.53,175.7A16.87,16.87,0,0,1,138,177a11,11,0,0,1-7.12,2.48c-4.66-.14-7.82-3.45-7.57-8.33.19-3.79,2.32-6.11,5.68-7.51a24.23,24.23,0,0,1,6-1.43l3.95-.59c.13,0,.26,0,.25-.21a26.54,26.54,0,0,0-.13-4.37,3.62,3.62,0,0,0-3.53-3,10,10,0,0,0-9.42,4.18l-.1.14c-.14.21-.36.14-.53.1s-.08-.23-.06-.36c.21-1.87.44-3.73.63-5.6a.73.73,0,0,1,.62-.76c1.63-.43,3.17-1.11,4.8-1.54a15.7,15.7,0,0,1,7.24-.38,7.08,7.08,0,0,1,5.81,6.55c.05.59.07,1.17.07,1.76v14.2a11.46,11.46,0,0,0,.23,2.34,3.45,3.45,0,0,0,2.62,2.77c.28.08.57.13.86.19s.3,0,.27.24.08.35-.18.45a13.54,13.54,0,0,1-4.73,1.09,3.72,3.72,0,0,1-4.09-3.43C139.56,175.93,139.55,175.84,139.53,175.7Zm-.33-6.9c0-1.17,0-2.35,0-3.53,0-.25,0-.34-.32-.28-1.18.23-2.37.41-3.56.64a13.2,13.2,0,0,0-4.47,1.5,4.43,4.43,0,0,0,.34,7.8,5.24,5.24,0,0,0,2.57.25,10.48,10.48,0,0,0,5.24-2.41.54.54,0,0,0,.2-.47C139.2,171.13,139.2,170,139.2,168.8Z"/><path class="cls-2" d="M198.57,165.28h-8.5c-.31,0-.41.06-.4.38a10.27,10.27,0,0,0,2.31,6.62,8.22,8.22,0,0,0,6.84,2.79,12.45,12.45,0,0,0,8.11-3.42c.12-.11.21-.38.41-.27a.66.66,0,0,1,.36.69,7.35,7.35,0,0,1-3.71,5.84,12.11,12.11,0,0,1-5.85,1.6,13,13,0,0,1-8.8-2.62,12.53,12.53,0,0,1-4.58-7.53,18.5,18.5,0,0,1,1.57-12.92,11.86,11.86,0,0,1,8.88-6.52,10.94,10.94,0,0,1,8.93,2,10.34,10.34,0,0,1,3.65,6.4,16.33,16.33,0,0,1-.2,6.64c-.06.29-.17.37-.47.37Zm-2.22-3.87c2,0,4,0,6.06,0,.32,0,.42-.1.46-.41a8.58,8.58,0,0,0,0-1.68c-.19-2.25-1.1-4.09-3.3-5a6.35,6.35,0,0,0-6.72,1,8.73,8.73,0,0,0-3,5.72c0,.33.11.3.32.3Z"/><path class="cls-2" d="M221.27,155v18a15.69,15.69,0,0,0,.23,2.64,3,3,0,0,0,2.16,2.49c.2.06.35.11.34.38s-.09.3-.32.3H213.32c-.12,0-.32.09-.3-.16s-.11-.37.16-.45c1.95-.56,2.4-2.11,2.54-3.87.12-1.49.12-3,.12-4.46q0-12.82,0-25.65a15.65,15.65,0,0,0-.21-3.06,3.43,3.43,0,0,0-2.26-2.71c-.25-.09-.4-.18-.38-.49s.26-.27.41-.31l6.67-1.75.12,0c.91-.21,1-.11,1,.79V155Z"/><path class="cls-2" d="M60.84,120.47v.41q0,10,0,19.93a.9.9,0,0,1-.37.78,50.44,50.44,0,0,1-15.23,8.52c-.34.12-.42.07-.42-.29q0-5.31,0-10.62a.61.61,0,0,1,.36-.61A33.86,33.86,0,0,0,60.68,120.7a2.29,2.29,0,0,1,.1-.23Z"/><path class="cls-2" d="M236.63,163.17c0,3.07-.07,6.82.06,10.56a15.24,15.24,0,0,0,.18,1.8,3,3,0,0,0,2.22,2.64c.16.05.31.07.31.31s0,.37-.34.37c-3.44,0-6.88,0-10.32,0-.13,0-.33.07-.32-.19s0-.39.22-.47a3.33,3.33,0,0,0,2.41-3.2,39.74,39.74,0,0,0,.18-4.88c0-4,0-8,0-12a11.88,11.88,0,0,0-.18-2.22,3.46,3.46,0,0,0-2.28-2.78c-.23-.09-.37-.17-.37-.46s.23-.29.39-.33q3.38-.9,6.75-1.77l.08,0c.89-.19,1-.1,1,.78Z"/><path class="cls-2" d="M234.14,143.3a3.51,3.51,0,0,1-3.66-3.66,3.67,3.67,0,0,1,3.66-3.8,3.84,3.84,0,0,1,3.81,3.81A3.67,3.67,0,0,1,234.14,143.3Z"/></g></g></svg>