<svg xmlns="http://www.w3.org/2000/svg" viewBox="0 0 300 300"><defs><style>.cls-1{fill:#303030;}.cls-2{fill:#fff;}</style></defs><title>booknode</title><g id="Calque_2" data-name="Calque 2"><g id="Calque_1-2" data-name="Calque 1"><circle class="cls-1" cx="150" cy="150" r="150"/><rect class="cls-2" x="56.57" y="56.57" width="186.86" height="186.86" rx="18"/><path class="cls-1" d="M119.53,215.65,90,181.78c-.23,2-.42,2.93-.45,3.89-.18,6.3-.28,12.61-.53,18.91-.16,4.13.26,7.75,5.38,8.5.18,0,.29.5.67,1.21H81.21l-.27-.7c.8-.45,1.87-.7,2.34-1.38,1-1.39,2.15-3,2.26-4.53.6-8.55,1-17.12,1.25-25.69.1-4.37-1.12-8.28-6.28-9.33-.21,0-.34-.44-.51-.67,2.63-2,7.55-1.65,9.62.77q12.88,15.08,25.74,30.18c.7.82,1.48,1.57,2.25,2.39.39-.47.63-.62.62-.78,0-9-.07-18-.24-26.92,0-2.44-1.58-3.93-4-4.46a20.45,20.45,0,0,1-2.67-1l.17-.91h14.75c-6.27,3.39-4.58,8.73-4.75,13.43-.33,9.5-.46,19-.7,28.52a14.4,14.4,0,0,1-.33,2Z"/><path class="cls-1" d="M85.07,81.31a21.15,21.15,0,0,1,2.79-.46c5.68-.08,11.37-.24,17-.08a17.46,17.46,0,0,1,6.57,1.46c6.79,3.1,7.82,11.08,2.24,16-.68.59-1.35,1.2-2.12,1.88.46.24.7.4,1,.51,6.75,2.78,9.25,6.52,8.41,12.61a13.6,13.6,0,0,1-11.85,11.4c-3.47.34-7,0-10.52,0-2.88,0-5.77,0-8.66-.08a8.36,8.36,0,0,1-3.21-.82c5.42-1.42,5-5.58,5-9.46q.07-12.24.1-24.48c0-5.57-.29-5.93-5.67-7.42C85.91,82.36,85.75,82,85.07,81.31Zm11.66,30.36h-.15v1.24c0,9.76.27,10,10.07,9.53,5.37-.25,8.28-2.62,9.13-7.44.91-5.15-1.38-10.16-6.09-11.55-3.58-1.06-7.5-1.07-11.28-1.3-.51,0-1.53,1.32-1.6,2.09C96.6,106.7,96.73,109.19,96.73,111.67ZM102.6,100c.72,0,1.44,0,2.16,0,3,0,5.56-.83,6.93-3.7a7.94,7.94,0,0,0-1.12-8.72c-2.43-3.16-5.81-4.41-9.72-4.64-2.29-.14-3.62.68-3.74,3-.15,2.77-.23,5.56-.24,8.34C96.87,100,96.9,100,102.6,100Z"/><path class="cls-1" d="M185,189c0-4.61,0-9.05,0-13.48,0-3.2-2.7-3-5.54-3.93l10.41-3.93c0,1.61,0,2.72,0,3.83-.24,10.86-.54,21.71-.71,32.56-.06,3.78-1.11,8.16,4.92,9.2l-.47.8-8.48,1.36-1.07-4L181.79,213c-6.9,5-16.1,1.93-18.39-6.25-1.59-5.69-.5-11,3.79-15.18a13.63,13.63,0,0,1,14.63-3.22c.68.23,1.37.46,2.07.65A5.23,5.23,0,0,0,185,189Zm-.15,12.28h0c0-1.24,0-2.47,0-3.71,0-4.81-1.17-6.15-6.63-7.77A7.84,7.84,0,0,0,169,192.9c-3.65,5.41-1.49,14.81,4.15,18,5.8,3.35,11.67,0,11.69-6.61Z"/><path class="cls-1" d="M190.17,81.72l9.8-4.18v33.65l10.84-9.34-3.56-3h12.22c-3.9,2.69-7.85,5.5-11.88,8.16-2.09,1.38-2.2,2.69-.53,4.46,2.2,2.33,4.1,5,6.49,7.06a86.22,86.22,0,0,0,8.11,5.68c-2.8,1.5-8.76.82-11.11-1.65-1.57-1.64-3-3.38-4.51-5.11s-2.85-3.46-4.37-5.3c-3.17,2-1.81,4.79-1.91,7.14-.15,3.49,3.1,3.49,5.46,4.35l-.27.77H191.84c3.82-2,3.47-5.38,3.47-8.65q0-13.63.05-27.28C195.36,83.69,195,83.21,190.17,81.72Z"/><path class="cls-1" d="M139.56,125.59c-8.33,0-14.12-5.54-14.11-13.6,0-8.25,6-14,14.53-14s14.43,5.74,14.39,13.76S148.14,125.56,139.56,125.59Zm10.08-12c0-4.48-1.41-8.45-4-11a9.16,9.16,0,0,0-9.39-2.5c-3.3,1-5,3.55-5.6,6.79a15.44,15.44,0,0,0,2,11.6c2.59,4.16,7,6.06,11.07,4.94C147.37,122.43,149.61,118.74,149.64,113.63Z"/><path class="cls-1" d="M173.14,125.59C164.85,125.63,159,120,159,112c.07-8.15,5.93-13.9,14.26-14,8.53-.09,14.52,5.42,14.65,13.47S181.89,125.55,173.14,125.59Zm10.07-12c0-4.66-1.48-8.68-4.25-11.24a9.1,9.1,0,0,0-9.17-2.26c-3.28,1-4.9,3.53-5.57,6.81A15.78,15.78,0,0,0,165.89,118c2.42,4.43,7.15,6.62,11.4,5.44C181,122.41,183.18,118.78,183.21,113.61Z"/><path class="cls-1" d="M143.63,188c8.52,0,14.43,5.59,14.41,13.67s-6.18,13.83-14.73,13.92c-8.22.08-14.14-5.61-14.15-13.6C129.15,193.72,135.05,188,143.63,188Zm9.72,14.17a13.39,13.39,0,0,0-5.27-10.66c-5-3.72-11.67-1.79-13.4,3.89A15.56,15.56,0,0,0,136,208c2.42,4.28,7.09,6.54,11.15,5.52C151,212.53,153.32,208.83,153.35,202.16Z"/><path class="cls-1" d="M220.67,198.69H202.44a11.34,11.34,0,0,0,5.31,12c4.57,2.59,8.68.49,13.43-2a12.12,12.12,0,0,1-1.06,2.39c-3.53,4.06-8.05,5.28-13.18,4.23-4.9-1-8.24-3.94-9.3-8.87-1.15-5.27-.42-10.32,3.22-14.59a11.72,11.72,0,0,1,12.73-3.33C217.71,189.91,220.48,193.65,220.67,198.69Zm-5.51-1.75c-.68-5.27-3.69-8-7.47-7.4a6.37,6.37,0,0,0-5,7.4Z"/><path class="cls-1" d="M150,144.85a5.2,5.2,0,0,1,5.09,5.18,5.08,5.08,0,0,1-5.11,5.12,5.15,5.15,0,0,1-5.11-5.14A5.27,5.27,0,0,1,150,144.85Z"/></g></g></svg>