<svg xmlns="http://www.w3.org/2000/svg" viewBox="0 0 300 300"><defs><style>.cls-1{fill:#303030;}.cls-2{fill:#fff;}</style></defs><title>cultura</title><g id="Calque_2" data-name="Calque 2"><g id="Calque_1-2" data-name="Calque 1"><circle class="cls-1" cx="150" cy="150" r="150"/><g id="g638"><path id="path640" class="cls-2" d="M275.19,148.46c-1.15-1.92-3.75-3.48-7.08-3.86a18.64,18.64,0,0,0-3.43-.09,28,28,0,0,0-4.89.85,1.71,1.71,0,0,0-1,.76,3.17,3.17,0,0,0-.41,1.08,1.81,1.81,0,0,0,0,.51,1.23,1.23,0,0,0,.48.94,1.18,1.18,0,0,0,.85.22,3.2,3.2,0,0,0,.51-.06s.66-.13,1.79-.26l0,.18c.06.43.14,1.06.19,1.83.28,3.83-.05,11.27-5.34,17.17a23.1,23.1,0,0,1-15.11,8.12c-.56.07-1.12.12-1.69.16a31.1,31.1,0,0,1-16.45-3.4c-6.22-3.2-10.46-7.86-12.53-10-.31-.34-.56-.62-.81-.85a1.31,1.31,0,0,0-.94-.46.93.93,0,0,0-.55.27,5.61,5.61,0,0,0-.92,1.63,5.34,5.34,0,0,0-.46,2.08v0a14,14,0,0,0,4.76,9.84,19.75,19.75,0,0,0,5,3.08,10,10,0,0,0,3.28,1h.1a.89.89,0,0,0,.76-.47,1.41,1.41,0,0,0,.12-.74,7.47,7.47,0,0,0-.68-2.14l-.11-.22-.59-.15a16.34,16.34,0,0,1-4.43-2.12,12.86,12.86,0,0,1-5-6.78c3,3.36,7.93,7.56,11.87,9.41a39.15,39.15,0,0,0,19.13,4h0a26.55,26.55,0,0,0,10.91-3.12,27.8,27.8,0,0,0,12.09-12c3.16-5.89,3.13-12.55,2.92-15.58,0-.36-.05-.67-.08-.92a7.41,7.41,0,0,1,3.77,2.88,1.63,1.63,0,0,0,.76.58,1.33,1.33,0,0,0,.52.06,2.32,2.32,0,0,0,.95-.29h0a5.3,5.3,0,0,0,1.25-1,2.21,2.21,0,0,0,.71-1.6,1.43,1.43,0,0,0-.16-.56"/></g><g id="g642"><path id="path644" class="cls-2" d="M49.79,124c12.77-.9,19.85,5.81,19.85,5.81l-4.08,7.4a23.2,23.2,0,0,0-14.71-4.53c-11.08.78-17,9.5-16.34,19.25.72,10,8.06,18.28,19,17.51,9.09-.63,14.75-7.7,14.75-7.7l5.5,6.51a28.26,28.26,0,0,1-20,9.93c-16,1.13-27.93-10-29-25.42C23.65,137.5,34.35,125,49.79,124"/></g><g id="g646"><path id="path648" class="cls-2" d="M72.77,138.07l9.38-.66,1.56,22.3c.32,4.58,1.72,7.6,6.38,7.27,6.79-.48,10.13-6.73,9.67-13.44l-1.22-17.28,9.37-.65,2.65,37.66-9,.63-.29-4.29a22.4,22.4,0,0,1,0-2.67h-.15a14.57,14.57,0,0,1-12.53,8.75c-8.05.55-13.36-3.15-14.07-13.41"/></g><g id="g650"><path id="path652" class="cls-2" d="M111.05,120.55l9.3-.65,2.76,39.28c.28,4.12,1.76,5.07,4.2,4.89a12.26,12.26,0,0,0,1.39-.16l.58,8.19a21.62,21.62,0,0,1-2.94.43c-5.17.36-11.69-.52-12.44-11.3"/></g><g id="g654"><path id="path656" class="cls-2" d="M177.1,130.76,178.3,148c.48,6.72-2.87,13-9.66,13.44-4.66.33-6-2.69-6.38-7.27l-1.55-22.3-21,1.47L139,123.12l-9.16.64.72,10.26-5.09.36.52,7.45,4.87-.33L132,157.89c.89,12.63,11.41,13.44,16.65,13.08a16.39,16.39,0,0,0,2.86-.43l-.57-8.19a9.12,9.12,0,0,1-1.69.27c-2.58.17-7.52-.37-7.95-6.56l-1.07-15.22,11.64-.82L153,156.79c.72,10.25,6,14,14.08,13.41a14.56,14.56,0,0,0,12.52-8.75h.14a25.3,25.3,0,0,0,0,2.67l.3,4.28,9-.63-2.64-37.66"/></g><g id="g658"><path id="path660" class="cls-2" d="M191.48,129.76l9-.64.44,6.5a22.57,22.57,0,0,1,0,2.67h.15c1.32-5.51,5.53-10.11,11.29-10.51a9.54,9.54,0,0,1,1.7,0l.65,9.23a16.89,16.89,0,0,0-2.22,0,10.73,10.73,0,0,0-9.73,8.63,20.41,20.41,0,0,0-.36,6.18l1,14.91-9.38.67"/></g><g id="g662"><path id="path664" class="cls-2" d="M236.36,140.71l1.26-.09,0-.52c-.34-4.94-3.57-6.43-7.7-6.13-5.39.38-10.09,4.34-10.09,4.34l-4-6.47a25.5,25.5,0,0,1,14.45-5.69c9.89-.68,16,4.37,16.7,13.89l1.65,23.56-8.64.6-.22-3.1a22.4,22.4,0,0,1,0-2.67h-.15c.09,0-2.41,6.86-11,7.45-6.71.47-13.07-3.31-13.59-10.84-.84-12,15.27-13.91,21.4-14.34m-6,17.7c4.93-.34,8.11-5.91,7.8-10.48l-.07-.89-1.62.11c-4.8.34-12.51,1.55-12.15,6.78.18,2.52,2.2,4.75,6,4.48"/></g></g></g></svg>