<svg xmlns="http://www.w3.org/2000/svg" viewBox="0 0 300 300"><defs><style>.cls-1{fill:#303030;}.cls-2{fill:#fff;}</style></defs><title>fnac</title><g id="Calque_2" data-name="Calque 2"><g id="Calque_1-2" data-name="Calque 1"><circle class="cls-1" cx="150" cy="150" r="150"/><path class="cls-2" d="M165,130.36c0,4,3.86,5,8.19,5,4.52,0,12.41-1.65,12.41-12.18-2.26,1.58-8.55,1.66-12.69,2.26S165,126.44,165,130.36Z"/><path class="cls-2" d="M108.22,102.44h5.64v5.44h.25c3-4.38,11.6-6.37,16.56-6.37,12.48,0,19.84,6.29,19.84,15.95v24H138.77v-22c0-6.41-6.61-9.71-12.07-9.71-6.36,0-12.26,3.37-12.26,11.29v20.45H102.7V109.61h-18v31.84H73.71V109.61H68.84L51,223l170.43,29.22L239.72,136c-4.06,4.26-10.46,6.52-18.37,6.52-14.37,0-24-8.3-24-20,0-12.14,8.84-21.12,24.32-21.12,9.93,0,19.14,3.77,21.72,11.52L249,77.05,78.57,47.83,70,102.44h3.74v-3c0-6.87,6.18-14.84,19.67-14.84,9,0,20.1,2.38,20.1,14.28H103.17c0-4.23-6.62-5.82-9.79-5.82-4.5,0-8.73,3.81-8.73,7v2.34h23.57ZM196.62,142H185.15v-4.3c-4.23,3.54-11,4.83-16.91,4.83-9.22,0-16.56-3.7-16.56-11.7,0-8.83,8.28-10.94,16.56-11.84s15.81-.76,15.81-5.13c0-4.61-4-5.29-8.65-5.29-5.09,0-8.38,1.66-8.85,5.89H153.19c.75-10,11.15-13,22.07-13,9.69,0,21.36,3.32,21.36,12.68V142Z"/><path class="cls-2" d="M221.54,109.46c-8.39,0-11.15,6.94-11.15,12.68,0,5.58,2.67,12.29,10.87,12.29,6.08,0,9.58-3.16,10.41-7.92h9.54l1.63-10.34H231.21C230.38,111.8,227,109.46,221.54,109.46Z"/></g></g></svg>