<?xml version="1.0" encoding="utf-8"?>
<!-- Generator: Adobe Illustrator 23.0.0, SVG Export Plug-In . SVG Version: 6.00 Build 0)  -->
<svg version="1.1" id="Calque_1" xmlns="http://www.w3.org/2000/svg" xmlns:xlink="http://www.w3.org/1999/xlink" x="0px" y="0px"
	 viewBox="0 0 1392 384" style="enable-background:new 0 0 1392 384;" xml:space="preserve">
<style type="text/css">
	.st0{fill:#303030;}
</style>
<path class="st0" d="M225.6,37.5c-94-55.2-233.8-36.9-292-20.9c-7.5,65.2-26.2,219.6-41,315.2C-125.8,451.4,329.2,407.7,392,374
	c72.5-38.9,359-37.7,437-16.4c55.1,15,279.2,23.4,365.5-25.7c72-40.9,193.2-14.4,251.5,7.6c16.7-71.6,40-221,0-245
	c-40-24.1-116-10-149,0c-83.3,19.9-277.2,45.4-386-12c-108.8-57.4-316-23.9-406,0C451.1,90.5,319.6,92.7,225.6,37.5z"/>
</svg>
