<?xml version="1.0" encoding="utf-8"?>
<!-- Generator: Adobe Illustrator 23.0.0, SVG Export Plug-In . SVG Version: 6.00 Build 0)  -->
<svg version="1.1" id="Calque_1" xmlns="http://www.w3.org/2000/svg" xmlns:xlink="http://www.w3.org/1999/xlink" x="0px" y="0px"
	 viewBox="0 0 1469 986" style="enable-background:new 0 0 1469 986;" xml:space="preserve">
<style type="text/css">
	.st0{fill:#EBEBEB;}
</style>
<path class="st0" d="M-628,62c50.8-31.3,776.3-71.7,915.5-15.8c184.3,74.1,215,56,321.7,39.3c131.2-20.5,377.8-5.2,490.3,72.4
	c87,60,198,18,307,18c87.2,0,887.3,116.6,903.5,122l-59,654c-72.5-56.9-903-182-1138.6-61.8c-152.4,48.7-391.1,53.7-503.2,28.4
	c-79-16.5-250.6-35.7-304.6,19.1C250.6,992.5-533.6,973-645,966"/>
</svg>
