<svg xmlns="http://www.w3.org/2000/svg" viewBox="0 0 300 300"><defs><style>.cls-1{fill:#303030;}.cls-2{fill:#fff;}</style></defs><title>lisez</title><g id="Calque_2" data-name="Calque 2"><g id="Calque_1-2" data-name="Calque 1"><circle class="cls-1" cx="150" cy="150" r="150"/><path class="cls-2" d="M42.32,165.47c3.62-12.17,6.72-24.53,11-36.45,3.1-8.57,7.56-16.7,12-24.7a36.76,36.76,0,0,1,8.88-10.81c2.4-1.92,7.07-3.38,9.45-2.28s4,5.59,4.21,8.71a20.87,20.87,0,0,1-2.53,11c-8.85,15.74-18.13,31.24-27.31,46.8a30.39,30.39,0,0,1-2.2,2.53c-3.26,4.34-3.77,13.22-1,13.23a15.57,15.57,0,0,0,10.42-4.75c10.7-11.81,16.59-26.38,22-41.14,2.09-5.64,5.91-6.53,9.9-2.12,1.25,1.4,1.47,4.77.75,6.72-3.73,10-8,19.85-11.86,29.86-1,2.53-.82,5.48-1.19,8.23l2.12,1.09c2.26-3,4.92-5.78,6.69-9,5.55-10.24,10.66-20.72,16.16-31,2.42-4.52,4.74-9.37,8.26-12.93,2.23-2.25,6.57-3,10-3.13,1.05,0,3.47,4.3,3.22,6.38-1,8.09-3.1,16-4.24,24.12-.65,4.62-.05,9.4-.35,14.1-.59,9.54-5.71,17-12.63,18.8-8.88,2.36-13.89-2.5-17.47-9.68-4.52,3.89-8.3,8.48-13.15,10.95s-8-1.29-10.75-11.73c-2.13,2.51-3.87,4.6-5.66,6.64C57,186.38,49.28,185.56,42.32,172.2Zm76.29-36-2.84-.89c-4.9,10.09-10.15,20-14.54,30.33-1.91,4.46,2.39,12.41,6.19,12.69,6.22.46,7-5,7.63-9.05C116.64,151.54,117.47,140.46,118.61,129.43ZM84.29,96.49c-9.66,5.64-27,43.51-25.16,53.42C69.75,133.25,79.86,117.26,84.29,96.49Z"/><path class="cls-2" d="M189.4,162c15.22,6.15,18.73,14.92,12.31,29.4-7.81,17.62-26.13,29.2-42.63,26.26a21.77,21.77,0,0,1-10.81-5.87c-1.91-1.89-1.75-5.87-2.77-9.87,2.79.56,3.63.47,4,.84,7.75,7.59,12.3,8.15,21.43,2,9.32-6.32,16.37-14.63,20-25.42,2.67-7.92-.39-11-8.44-9.77-2.27.36-4.87-1.39-7.32-2.17,1.14-2.26,1.71-5.24,3.51-6.67a145.69,145.69,0,0,0,31.24-33.37c-9.39,1.25-17.55,2.05-25.56,3.63-1.83.36-3.46,3.23-4.61,5.26-4.27,7.61-7.64,15.82-12.64,22.89A54.78,54.78,0,0,1,152,173.89c-10.25,6.39-21.34.45-21.54-11.59-.28-16.37,5.88-30.67,18.05-41.88,4.56-4.2,10.18-4.63,15.38-.73,5,3.73,5.79,8.76,3.56,14.4-3.84,9.68-10.64,15.73-21.06,17.72-1.71.33-4.39,2.22-4.43,3.44a30.38,30.38,0,0,0,1.73,11.42c.35.94,5.2,1.35,7,.31,4-2.27,8.19-5,10.89-8.64,8.17-10.94,15.39-22.45,15.82-36.87,0-1.32,3.62-4,4.18-3.62,8.38,4.88,16.14,1.05,23.92-1.4,4.66-1.46,9.16-4.52,13.06,1.35,3.52,5.29,3.82,12-.75,16.67-8.45,8.63-17.49,16.68-26.27,25C190.93,160.05,190.42,160.77,189.4,162Zm-45.27-15.55c10.28-1.63,18-13.07,15.81-22.5C150.65,128.49,148.38,137.44,144.13,146.42Z"/><path class="cls-2" d="M226.05,148.47c1.82-6.1,3.39-11.69,5.16-17.21,4.72-14.68,9.63-29.29,14.22-44,1.15-3.69,2.36-6.61,6.8-4.77C256.32,84.18,259,87,257,92c-3.39,8-6.92,16-10.28,24-4.64,11.14-9.11,22.36-13.84,33.46-.59,1.39-2.32,2.3-3.51,3.43Z"/><path class="cls-2" d="M169.07,185.2c-2.58,1.16-4.41,2.21-6.38,2.85C127.48,199.6,91.55,205.62,54.4,201.48a15,15,0,0,1-6.56-2.6c-.85-.59-1-2.91-.65-4.19.23-.77,2.22-1.69,3.2-1.48,39.92,8.43,78.64,2.42,116.9-9.49C167.4,183.68,167.62,184,169.07,185.2Z"/><path class="cls-2" d="M94.92,108.54c.07-7.93,4-13.17,8.49-12.42,2.13.35,5.11,3.57,5.35,5.74.59,5.4-5.36,13-8.68,11.72C97.55,112.6,95.83,109.49,94.92,108.54Z"/><path class="cls-2" d="M223.49,158.41c1.73,3.21,3.59,5.14,3.18,6.2-.84,2.17-2.89,3.87-4.44,5.77-1.26-1.52-3.71-3.25-3.5-4.52C219.09,163.72,221.15,161.86,223.49,158.41Z"/></g></g></svg>